# xmcd
#
# Track frame offsets:
#	150
#	21142
#	45397
#	63850
#	85977
#	108642
#	131137
#	150865
#	171852
#	192985
#	206535
#
# Disc length: 3029 seconds
#
# Revision: 0
# Processed by: cddbd v1.5.2PL0 Copyright (c) Steve Scherf et al.
# Submitted via: audiograbber 1.83.01
#
DISCID=8b0bd30b
DTITLE=Roberta Flack - Set The Night To Music
DYEAR=1991
DGENRE=
TTITLE0=Roberta Flack - The Waiting Game
TTITLE1=Roberta Flack and Maxi Priest - Set the Night To Music
TTITLE2=Roberta Flack - When Someone Tears Your Heart In Two
TTITLE3=Roberta Flack - Something Your Heart Has Been Telling Me
TTITLE4=Roberta Flack - You Make Me Feel Brand New
TTITLE5=Roberta Flack - Unforgettable
TTITLE6=Roberta Flack - Summertime
TTITLE7=Roberta Flack - Natural Thing
TTITLE8=Roberta Flack - My Foolish Heart
TTITLE9=Roberta Flack - Friend
TTITLE10=Roberta Flack - Always
EXTD=Artist names correctly shown.
EXTT0=
EXTT1=
EXTT2=
EXTT3=
EXTT4=
EXTT5=
EXTT6=
EXTT7=
EXTT8=
EXTT9=
EXTT10=
PLAYORDER=
